<?xml version="1.0" standalone="no"?>
<!DOCTYPE svg PUBLIC "-//W3C//DTD SVG 20010904//EN"
 "http://www.w3.org/TR/2001/REC-SVG-20010904/DTD/svg10.dtd">
<svg version="1.0" xmlns="http://www.w3.org/2000/svg"
 width="400.000000pt" height="400.000000pt" viewBox="0 0 400.000000 400.000000"
 preserveAspectRatio="xMidYMid meet">
<metadata>
Created by potrace 1.11, written by Peter Selinger 2001-2013
</metadata>
<g transform="translate(0.000000,400.000000) scale(0.100000,-0.100000)"
fill="#000000" stroke="none">
<path d="M464 2858 l1 -52 58 -2 c67 -3 122 -27 151 -67 21 -28 21 -37 21
-716 l0 -688 -27 -35 c-31 -41 -78 -60 -150 -62 -26 0 -49 -3 -49 -6 -1 -3 -3
-26 -4 -53 l-3 -47 671 2 670 3 3 70 c1 39 5 159 8 268 l6 197 -65 0 c-45 0
-65 -4 -66 -12 0 -7 -2 -22 -4 -33 -2 -11 -7 -47 -10 -80 -14 -140 -55 -224
-128 -265 -41 -24 -46 -24 -317 -25 l-275 0 0 720 c0 705 0 721 20 755 27 46
76 69 153 72 l62 3 0 53 0 52 -363 0 -364 0 1 -52z"/>
<path d="M1940 2858 l0 -53 49 -2 c99 -4 129 -36 186 -204 20 -57 49 -140 65
-184 52 -146 218 -619 244 -695 14 -41 39 -113 56 -160 17 -47 46 -130 65
-185 19 -55 46 -131 60 -170 14 -38 25 -71 25 -72 0 -2 42 -3 93 -3 l92 0 64
183 c35 100 97 279 138 397 41 118 81 231 88 250 13 33 213 604 219 625 2 6 6
19 11 30 4 11 14 40 24 64 9 24 32 62 52 83 36 38 43 40 127 41 l32 0 0 53 0
54 -305 0 -305 0 0 -52 0 -53 65 -2 c110 -3 157 -41 157 -126 0 -29 -61 -223
-126 -402 -8 -22 -49 -139 -91 -260 -42 -121 -86 -245 -96 -275 -11 -30 -38
-120 -59 -199 -22 -79 -41 -146 -43 -148 -2 -1 -14 43 -27 100 -25 110 -83
292 -264 822 -64 187 -116 355 -116 373 0 72 46 110 142 117 29 2 56 4 61 4 4
1 7 24 7 51 l0 50 -345 0 -345 0 0 -52z"/>
</g>
</svg>
